<svg width="48" height="48" viewBox="0 0 48 48" fill="none" xmlns="http://www.w3.org/2000/svg">
  <!-- Outer circle with white border -->
  <circle cx="24" cy="24" r="23" fill="#1E40AF" stroke="white" stroke-width="2"/>
  
  <!-- Cursive GE text - G letter -->
  <path d="M16 20C16 18.5 17 17.5 18.5 17.5C19.5 17.5 20.2 18 20.5 18.8C20.8 19.6 20.6 20.4 20 21C19.4 21.6 18.6 22 17.5 22C16.5 22 15.8 21.5 15.5 20.7C15.2 19.9 15.4 19.1 16 18.5C16.6 17.9 17.4 17.5 18.5 17.5" fill="white" stroke="white" stroke-width="1.8" stroke-linecap="round" stroke-linejoin="round"/>
  
  <!-- Cursive GE text - E letter -->
  <path d="M24 17.5H28C29.1 17.5 30 18.4 30 19.5V20.5C30 21.6 29.1 22.5 28 22.5H24M24 22.5H28C29.1 22.5 30 23.4 30 24.5V25.5C30 26.6 29.1 27.5 28 27.5H24M24 27.5H28C29.1 27.5 30 28.4 30 29.5V30.5C30 31.6 29.1 32.5 28 32.5H24" fill="white" stroke="white" stroke-width="1.8" stroke-linecap="round" stroke-linejoin="round"/>
  
  <!-- Swirling flourishes -->
  <!-- Top left flourish -->
  <path d="M12 12C12 12 14 10 16 12C18 14 16 16 14 16C12 16 10 14 12 12" fill="none" stroke="white" stroke-width="1.5" stroke-linecap="round"/>
  
  <!-- Top right flourish -->
  <path d="M36 12C36 12 34 10 32 12C30 14 32 16 34 16C36 16 38 14 36 12" fill="none" stroke="white" stroke-width="1.5" stroke-linecap="round"/>
  
  <!-- Bottom left flourish -->
  <path d="M12 36C12 36 14 38 16 36C18 34 16 32 14 32C12 32 10 34 12 36" fill="none" stroke="white" stroke-width="1.5" stroke-linecap="round"/>
  
  <!-- Bottom right flourish -->
  <path d="M36 36C36 36 34 38 32 36C30 34 32 32 34 32C36 32 38 34 36 36" fill="none" stroke="white" stroke-width="1.5" stroke-linecap="round"/>
</svg>
