<svg width="32" height="32" viewBox="0 0 32 32" fill="none" xmlns="http://www.w3.org/2000/svg">
  <rect width="32" height="32" rx="6" fill="#2563EB"/>
  <path d="M8 11.5C8 10.1193 9.11929 9 10.5 9H21.5C22.8807 9 24 10.1193 24 11.5V20.5C24 21.8807 22.8807 23 21.5 23H10.5C9.11929 23 8 21.8807 8 20.5V11.5Z" fill="white"/>
  <path d="M11 13V19H13.5V17H15.5C16.8807 17 18 15.8807 18 14.5C18 13.1193 16.8807 12 15.5 12H11V13ZM13.5 14V15.5H15.5C15.7761 15.5 16 15.2761 16 15V14.5C16 14.2239 15.7761 14 15.5 14H13.5Z" fill="#2563EB"/>
  <path d="M19 13V19H24V17.5H21.5V16.25H23.5V15H21.5V13.75H24V12H19V13Z" fill="#2563EB"/>
</svg>